{"title":"Sleepaway Camp (1983) fiveofseven zombiRG","uid":15191981,"size":633301432,"categoryP":"video","categoryS":"movies","magnet":"?xt=urn:btih:85d2491852f6eb21d17cca7fa3f54e0b82a2a609&amp;dn=Sleepaway+Camp+%281983%29+fiveofseven+zombiRG&amp;tr=udp%3A%2F%2Ftracker.leechers-paradise.org%3A6969&amp;tr=udp%3A%2F%2Fzer0day.ch%3A1337&amp;tr=udp%3A%2F%2Fopen.demonii.com%3A1337&amp;tr=udp%3A%2F%2Ftracker.coppersurfer.tk%3A6969&amp;tr=udp%3A%2F%2Fexodus.desync.com%3A6969","seeders":2,"leechers":1,"uploader":"fiveofseven","files":3,"time":1467527356,"description":"\nPLOT - Angela Baker, a traumatized and very shy young girl, \r\nis sent to summer camp with her cousin. Shortly after her arrival, \r\nanyone with sinister or less than honorable intentions gets their comeuppance.\r\n\r\n\r\nINFO\r\n\r\nEncoder: fiveofseven\r\nSource: Blu-Ray\r\nRating: R (Unedited)\r\nGenre: Horror\r\nSubtitles: English\r\nPoster: \r  https://yuq.me/users/25/564/2vMnBlRaJh.jpg \r\n\r\nGeneral\r\nComplete name                            : Sleepaway Camp (fiveofseven zombiRG).mp4\r\nFormat                                   : MPEG-4\r\nFormat profile                           : Base Media\r\nCodec ID                                 : isom\r\nFile size                                : 600 MiB\r\nDuration                                 : 1h 24mn\r\nOverall bit rate mode                    : Variable\r\nOverall bit rate                         : 989 Kbps\r\nEncoded date                             : UTC 2016-05-04 19:44:23\r\nTagged date                              : UTC 2016-05-05 15:03:25\r\nWriting application                      : My MP4Box GUI 0.6.0.6 &lt;http://my-mp4box-gui.zymichost.com&gt;\r\n\r\nVideo\r\nID                                       : 1\r\nFormat                                   : AVC\r\nFormat/Info                              : Advanced Video Codec\r\nFormat profile                           :   \r\nFormat settings, CABAC                   : Yes\r\nFormat settings, ReFrames                : 7 frames\r\nCodec ID                                 : avc1\r\nCodec ID/Info                            : Advanced Video Coding\r\nDuration                                 : 1h 24mn\r\nBit rate                                 : 857 Kbps\r\nMaximum bit rate                         : 5 234 Kbps\r\nWidth                                    : 720 pixels\r\nHeight                                   : 400 pixels\r\nDisplay aspect ratio                     : 16:9\r\nFrame rate mode                          : Constant\r\nFrame rate                               : 23.976 fps\r\nColor space                              : YUV\r\nChroma subsampling                       : 4:2:0\r\nBit depth                                : 8 bits\r\nScan type                                : Progressive\r\nBits/(Pixel*Frame)                       : 0.124\r\nStream size                              : 520 MiB (87%)\r\nTitle                                    : sc 480p.mp4\r\nWriting library                          : x264 core 146 r2538 121396c\r\nLanguage                                 : English\r\nEncoded date                             : UTC 2016-05-04 19:38:31\r\nTagged date                              : UTC 2016-05-04 19:44:36\r\n\r\nAudio\r\nID                                       : 2\r\nFormat                                   : AAC\r\nFormat/Info                              : Advanced Audio Codec\r\nFormat profile                           : LC\r\nCodec ID                                 : 40\r\nDuration                                 : 1h 24mn\r\nBit rate mode                            : Variable\r\nBit rate                                 : 128 Kbps\r\nMaximum bit rate                         : 131 Kbps\r\nChannel count                            : 2 channels\r\nChannel positions                        : Front: L R\r\nSampling rate                            : 48.0 KHz\r\nCompression mode                         : Lossy\r\nStream size                              : 77.7 MiB (13%)\r\nTitle                                    : aac.mp4\r\nLanguage                                 : English\r\nEncoded date                             : UTC 2016-05-04 19:44:29\r\nTagged date                              : UTC 2016-05-04 19:44:36\r\n\r\n\r\nScreenshots - \r\n  \nhttps://yuq.me/users/25/564/8gVZKjhJfE.jpg \r\n  \nhttps://yuq.me/users/25/564/eIyPdLRZiC.jpg \r\n  \nhttps://yuq.me/users/25/564/zrsaxGL0kI.jpg \r\n  \nhttps://yuq.me/users/25/564/dFJnDeSL7i.jpg \r\n \r\nsignature \r\n  \nhttps://yuq.me/users/25/564/aegRQCBILx.png","torrent":{"xt":"urn:btih:85d2491852f6eb21d17cca7fa3f54e0b82a2a609","amp;dn":"Sleepaway+Camp+%281983%29+fiveofseven+zombiRG","amp;tr":["udp%3A%2F%2Ftracker.leechers-paradise.org%3A6969","udp%3A%2F%2Fzer0day.ch%3A1337","udp%3A%2F%2Fopen.demonii.com%3A1337","udp%3A%2F%2Ftracker.coppersurfer.tk%3A6969","udp%3A%2F%2Fexodus.desync.com%3A6969"],"infoHash":"85d2491852f6eb21d17cca7fa3f54e0b82a2a609","infoHashBuffer":{"type":"Buffer","data":[133,210,73,24,82,246,235,33,209,124,202,127,163,245,78,11,130,162,166,9]},"announce":[],"urlList":[]}}